<svg xmlns="http://www.w3.org/2000/svg" width="512" height="512" viewBox="0 0 512 512">
  <rect width="512" height="512" rx="128" fill="#FBFCFA"/>
  <circle cx="256" cy="238" r="166" fill="#D9EEF2"/>
  <path d="M155 264c49 64 153 64 202 0 11-14 31-14 43 0 12 15 12 35 0 50-73 90-216 90-289 0-12-15-12-35 0-50 12-14 32-14 44 0Z" fill="#74A46E"/>
  <path d="M162 174c0-26 21-47 47-47 21 0 39 14 45 33 6-19 24-33 45-33 26 0 47 21 47 47 0 59-92 107-92 107s-92-48-92-107Z" fill="#3F94A8"/>
  <text x="256" y="386" text-anchor="middle" font-family="Arial, Helvetica, sans-serif" font-size="58" font-weight="700" fill="#17313A">KGM</text>
</svg>
